<svg xmlns="http://www.w3.org/2000/svg" viewBox="0 0 48 32" width="48" height="32">
  <rect width="48" height="32" rx="4" fill="#1A1F71"/>
  <path d="M19.5 21h-2.7l1.7-10.5h2.7L19.5 21zm11.1-10.2c-.5-.2-1.4-.4-2.4-.4-2.7 0-4.5 1.4-4.5 3.4 0 1.5 1.4 2.3 2.4 2.8 1 .5 1.4.8 1.4 1.3 0 .7-.8 1-1.6 1-1.1 0-1.6-.2-2.5-.5l-.3-.2-.4 2.2c.6.3 1.7.5 2.9.5 2.8 0 4.7-1.4 4.7-3.5 0-1.2-.7-2-2.3-2.8-.9-.5-1.5-.8-1.5-1.2 0-.4.5-.8 1.5-.8.9 0 1.5.2 2 .4l.2.1.4-2.3zm6.9-.3h-2.1c-.6 0-1.1.2-1.4.8L30 21h2.8l.6-1.5h3.5l.3 1.5h2.5l-2.2-10.5zm-3.2 6.8l1.1-2.8.3-.9.2.8.6 2.9h-2.2zM16 10.5l-2.5 7.2-.3-1.3c-.5-1.6-2-3.4-3.7-4.2l2.4 9h2.9l4.3-10.7H16z" fill="#fff"/>
  <path d="M11.5 10.5H7.1l0 .2c3.4.9 5.6 2.9 6.5 5.4l-.9-4.7c-.2-.7-.7-.9-1.2-.9z" fill="#F9A533"/>
</svg>
